<?xml version="1.0" encoding="UTF-8"?>
<svg width="542px" height="580px" viewBox="0 0 542 580" version="1.1" xmlns="http://www.w3.org/2000/svg" xmlns:xlink="http://www.w3.org/1999/xlink">
    <!-- Generator: Sketch 50.2 (55047) - http://www.bohemiancoding.com/sketch -->
    <title>big_logo</title>
    <desc>Created with Sketch.</desc>
    <defs></defs>
    <g id="Page-1" stroke="none" stroke-width="1" fill="none" fill-rule="evenodd">
        <g id="Desktop-HD" transform="translate(-107.000000, -202.000000)" stroke="#FFFFFF" stroke-width="5">
            <polyline id="big_logo" transform="translate(378.000000, 493.000000) scale(1, -1) translate(-378.000000, -493.000000) " points="110 205 110 245.392051 110 322.196209 186.948205 322.196209 186.948205 245.392051 340.844616 245.392051 340.844616 322.196209 262.883935 322.196209 262.883935 399.000368 340.844616 399.000368 340.844616 469.741041 262.883935 469.741041 186.948205 469.741041 186.948205 399.000368 110 399.000368 110 550.587524 186.948205 550.587524 186.948205 625.37052 110 625.37052 110 781 186.948205 781 186.948205 701.164098 262.883935 701.164098 262.883935 781 340.844616 781 340.844616 625.37052 262.883935 625.37052 262.883935 550.587524 490.691122 550.587524 490.691122 625.37052 414.755393 625.37052 414.755393 781 490.691122 781 490.691122 701.164098 566.626851 701.164098 566.626851 781 645.600009 781 645.600009 625.37052 566.626851 625.37052 566.626851 550.587524 645.600009 550.587524 645.600009 399.000368 566.626851 399.000368 566.626851 469.741041 414.755393 469.741041 414.755393 399.000368 490.691122 399.000368 490.691122 322.196209 414.755393 322.196209 414.755393 245.392051 566.626851 245.392051 566.626851 322.196209 645.600009 322.196209 646 205"></polyline>
        </g>
    </g>
</svg>